<?xml version="1.0" standalone="no"?>
<!DOCTYPE svg PUBLIC "-//W3C//DTD SVG 1.1//EN" "http://www.w3.org/Graphics/SVG/1.1/DTD/svg11.dtd">
<svg width="52" height="63" viewBox="-10 -54 52 63" xmlns="http://www.w3.org/2000/svg" version="1.1">
<title>OpenSCAD Model</title>
<path d="
M 1.8541,-38.2937 L 5.87784,-35.9098 L 4.8541,-40.4733 L 9.51056,-40.9098 L 6,-44 L 9.51056,-47.0902
 L 4.8541,-47.5267 L 5.87784,-52.0902 L 1.8541,-49.7063 L 0,-54 L -1.8541,-49.7063 L -5.87784,-52.0902
 L -4.8541,-47.5267 L -9.51056,-47.0902 L -6,-44 L -9.51056,-40.9098 L -4.8541,-40.4733 L -5.87784,-35.9098
 L -1.8541,-38.2937 L 0,-34 z
M 20.9386,-38.0739 L 21.8541,-38.2937 L 23.6319,-36.8719 L 24.7023,-37.5279 L 24.2426,-39.7574 L 24.8541,-40.4733
 L 27.1281,-40.3681 L 27.6084,-41.5279 L 25.9261,-43.0614 L 26,-44 L 27.9015,-45.2515 L 27.6084,-46.4721
 L 25.346,-46.7239 L 24.8541,-47.5267 L 25.6568,-49.6568 L 24.7023,-50.4721 L 22.7239,-49.346 L 21.8541,-49.7063
 L 21.2515,-51.9015 L 20,-52 L 19.0614,-49.9261 L 18.1459,-49.7063 L 16.3681,-51.1281 L 15.2977,-50.4721
 L 15.7574,-48.2426 L 15.1459,-47.5267 L 12.8719,-47.6319 L 12.3916,-46.4721 L 14.0739,-44.9386 L 14,-44
 L 12.0985,-42.7485 L 12.3916,-41.5279 L 14.654,-41.2761 L 15.1459,-40.4733 L 14.3432,-38.3432 L 15.2977,-37.5279
 L 17.2761,-38.654 L 18.1459,-38.2937 L 18.7485,-36.0985 L 20,-36 z
M 35.4774,-39.0274 L 36.4181,-40.0219 L 36.927,-41.1468 L 38,-40.5359 L 39.3456,-40.2843 L 40.8541,-40.4733
 L 40.5677,-41.9663 L 39.9126,-43.1684 L 39,-44 L 39.9126,-44.8316 L 40.5677,-46.0337 L 40.8541,-47.5267
 L 39.3456,-47.7157 L 38,-47.4641 L 36.927,-46.8532 L 36.4181,-47.9781 L 35.4774,-48.9726 L 34.1459,-49.7063
 L 33.5,-48.3301 L 33.3235,-46.9726 L 33.573,-45.7634 L 32.3458,-45.6269 L 31.1093,-45.0396 L 30,-44
 L 31.1093,-42.9604 L 32.3458,-42.3731 L 33.573,-42.2366 L 33.3235,-41.0274 L 33.5,-39.6699 L 34.1459,-38.2937
 z
M -2.3255,-12.6729 L -2.15121,-12.6821 L -1.97736,-12.6973 L -1.80412,-12.7185 L -1.63174,-12.7458 L -1.46043,-12.7791
 L -1.29039,-12.8184 L -1.12181,-12.8636 L -0.95491,-12.9146 L -0.789886,-12.9714 L -0.626953,-13.034 L -0.466309,-13.1022
 L -0.308136,-13.1759 L -0.152634,-13.2551 L -0.075943,-13.2968 L 7.57518,-17.7142 L 7.72319,-17.8067 L 7.86787,-17.9043
 L 8.00906,-18.0068 L 8.14659,-18.1143 L 8.28029,-18.2265 L 8.40999,-18.3432 L 8.53552,-18.4645 L 8.65675,-18.59
 L 8.77354,-18.7197 L 8.88573,-18.8534 L 8.99316,-18.9909 L 9.09575,-19.1321 L 9.19334,-19.2768 L 9.28583,-19.4248
 L 9.37309,-19.576 L 9.45503,-19.7301 L 9.53152,-19.8869 L 9.60252,-20.0464 L 9.66789,-20.2082 L 9.72758,-20.3722
 L 9.78151,-20.5381 L 9.82962,-20.7059 L 9.87184,-20.8753 L 9.90813,-21.046 L 9.93843,-21.2178 L 9.96272,-21.3907
 L 9.98097,-21.5642 L 9.99313,-21.7383 L 9.99924,-21.9128 L 9.99924,-22.0872 L 9.99313,-22.2617 L 9.98097,-22.4358
 L 9.96272,-22.6093 L 9.93843,-22.7822 L 9.90813,-22.954 L 9.87184,-23.1247 L 9.82962,-23.2941 L 9.78151,-23.4619
 L 9.72758,-23.6278 L 9.66789,-23.7918 L 9.60252,-23.9536 L 9.53152,-24.1131 L 9.45503,-24.2699 L 9.37309,-24.424
 L 9.28583,-24.5752 L 9.19334,-24.7232 L 9.09575,-24.8679 L 8.99316,-25.0091 L 8.88573,-25.1466 L 8.77354,-25.2803
 L 8.65675,-25.41 L 8.53552,-25.5355 L 8.40999,-25.6568 L 8.28029,-25.7735 L 8.14659,-25.8857 L 8.00906,-25.9932
 L 7.86787,-26.0957 L 7.72319,-26.1933 L 7.57518,-26.2858 L -0.075943,-30.7032 L -0.230042,-30.7852 L -0.386902,-30.8617
 L -0.546341,-30.9326 L -0.708145,-30.998 L -0.872147,-31.0577 L -1.03813,-31.1116 L -1.2059,-31.1597 L -1.37524,-31.202
 L -1.54594,-31.2383 L -1.71782,-31.2686 L -1.89064,-31.2928 L -2.06421,-31.3111 L -2.23831,-31.3233 L -2.41273,-31.3294
 L -2.58725,-31.3294 L -2.76167,-31.3233 L -2.93578,-31.3111 L -3.10934,-31.2928 L -3.28217,-31.2686 L -3.45404,-31.2383
 L -3.62474,-31.202 L -3.79408,-31.1597 L -3.96185,-31.1116 L -4.12784,-31.0577 L -4.29184,-30.998 L -4.45364,-30.9326
 L -4.61308,-30.8617 L -4.76994,-30.7852 L -4.92404,-30.7032 L -5.07518,-30.616 L -5.22319,-30.5235 L -5.36787,-30.4259
 L -5.50906,-30.3233 L -5.64659,-30.2159 L -5.78029,-30.1037 L -5.90999,-29.9869 L -6.03552,-29.8656 L -6.15675,-29.7401
 L -6.27354,-29.6104 L -6.38573,-29.4767 L -6.49316,-29.3392 L -6.59575,-29.198 L -6.69334,-29.0533 L -6.78583,-28.9053
 L -6.87309,-28.7542 L -6.95503,-28.6001 L -7.03152,-28.4432 L -7.10252,-28.2838 L -7.16789,-28.122 L -7.22758,-27.958
 L -7.28151,-27.792 L -7.32962,-27.6242 L -7.37184,-27.4549 L -7.40813,-27.2842 L -7.43843,-27.1123 L -7.46272,-26.9395
 L -7.48097,-26.7659 L -7.49313,-26.5918 L -7.49924,-26.4174 L -7.49924,-17.5826 L -7.49313,-17.4082 L -7.48097,-17.2341
 L -7.46272,-17.0605 L -7.43843,-16.8877 L -7.40813,-16.7158 L -7.37184,-16.5451 L -7.32962,-16.3758 L -7.28151,-16.208
 L -7.22758,-16.042 L -7.16789,-15.878 L -7.10252,-15.7162 L -7.03152,-15.5568 L -6.95503,-15.3999 L -6.87309,-15.2458
 L -6.78583,-15.0947 L -6.69334,-14.9467 L -6.59575,-14.802 L -6.49316,-14.6608 L -6.38573,-14.5233 L -6.27354,-14.3896
 L -6.15675,-14.2599 L -6.03552,-14.1344 L -5.90999,-14.0131 L -5.78029,-13.8963 L -5.64659,-13.7841 L -5.50906,-13.6767
 L -5.36787,-13.5741 L -5.22319,-13.4765 L -5.07518,-13.384 L -4.92404,-13.2968 L -4.76994,-13.2148 L -4.61308,-13.1383
 L -4.45364,-13.0674 L -4.29184,-13.002 L -4.12784,-12.9423 L -3.96185,-12.8884 L -3.79408,-12.8403 L -3.62474,-12.798
 L -3.45404,-12.7617 L -3.28217,-12.7314 L -3.10934,-12.7072 L -2.93578,-12.6889 L -2.76167,-12.6767 L -2.58725,-12.6706
 L -2.5,-12.6699 z
M 22.1396,-14.5383 L 22.279,-14.5457 L 22.4181,-14.5578 L 22.5567,-14.5748 L 22.6946,-14.5967 L 22.8316,-14.6233
 L 22.9677,-14.6547 L 23.1025,-14.6909 L 23.2361,-14.7317 L 23.3681,-14.7771 L 23.4984,-14.8272 L 23.6269,-14.8817
 L 23.7535,-14.9407 L 23.8779,-15.0041 L 24,-15.0718 L 24.1197,-15.1437 L 24.2368,-15.2198 L 24.3511,-15.2998
 L 24.4626,-15.3839 L 24.5711,-15.4717 L 24.6765,-15.5633 L 24.7786,-15.6586 L 24.8773,-15.7573 L 24.9726,-15.8594
 L 25.0642,-15.9648 L 25.152,-16.0733 L 25.2361,-16.1848 L 25.3161,-16.2991 L 25.3922,-16.4162 L 25.4287,-16.4758
 L 27.4985,-20.0608 L 27.564,-20.1841 L 27.6252,-20.3095 L 27.682,-20.4371 L 27.7343,-20.5665 L 27.7821,-20.6977
 L 27.8252,-20.8305 L 27.8637,-20.9647 L 27.8975,-21.1002 L 27.9265,-21.2368 L 27.9507,-21.3743 L 27.9702,-21.5125
 L 27.9848,-21.6514 L 27.9945,-21.7907 L 27.9994,-21.9302 L 27.9994,-22.0698 L 27.9945,-22.2093 L 27.9848,-22.3486
 L 27.9702,-22.4875 L 27.9507,-22.6257 L 27.9265,-22.7632 L 27.8975,-22.8998 L 27.8637,-23.0353 L 27.8252,-23.1695
 L 27.7821,-23.3023 L 27.7343,-23.4335 L 27.682,-23.5629 L 27.6252,-23.6905 L 27.564,-23.8159 L 27.4985,-23.9392
 L 25.4287,-27.5242 L 25.3547,-27.6427 L 25.2766,-27.7584 L 25.1945,-27.8714 L 25.1086,-27.9814 L 25.0188,-28.0883
 L 24.9254,-28.1921 L 24.8284,-28.2925 L 24.728,-28.3895 L 24.6242,-28.4829 L 24.5173,-28.5727 L 24.4073,-28.6586
 L 24.2943,-28.7407 L 24.1785,-28.8188 L 24.0602,-28.8928 L 23.9392,-28.9626 L 23.8159,-29.0281 L 23.6905,-29.0893
 L 23.5629,-29.1461 L 23.4335,-29.1984 L 23.3023,-29.2462 L 23.1695,-29.2893 L 23.0353,-29.3278 L 22.8998,-29.3616
 L 22.7632,-29.3906 L 22.6257,-29.4148 L 22.4875,-29.4343 L 22.3486,-29.4489 L 22.2093,-29.4586 L 22.0698,-29.4635
 L 17.9302,-29.4635 L 17.7907,-29.4586 L 17.6514,-29.4489 L 17.5125,-29.4343 L 17.3743,-29.4148 L 17.2368,-29.3906
 L 17.1002,-29.3616 L 16.9647,-29.3278 L 16.8305,-29.2893 L 16.6977,-29.2462 L 16.5665,-29.1984 L 16.4371,-29.1461
 L 16.3095,-29.0893 L 16.1841,-29.0281 L 16.0608,-28.9626 L 15.9398,-28.8928 L 15.8215,-28.8188 L 15.7057,-28.7407
 L 15.5927,-28.6586 L 15.4827,-28.5727 L 15.3758,-28.4829 L 15.272,-28.3895 L 15.1716,-28.2925 L 15.0746,-28.1921
 L 14.9812,-28.0883 L 14.8914,-27.9814 L 14.8055,-27.8714 L 14.7234,-27.7584 L 14.6453,-27.6427 L 14.5713,-27.5242
 L 12.5015,-23.9392 L 12.436,-23.8159 L 12.3748,-23.6905 L 12.318,-23.5629 L 12.2657,-23.4335 L 12.2179,-23.3023
 L 12.1748,-23.1695 L 12.1363,-23.0353 L 12.1025,-22.8998 L 12.0735,-22.7632 L 12.0493,-22.6257 L 12.0298,-22.4875
 L 12.0152,-22.3486 L 12.0055,-22.2093 L 12.0006,-22.0698 L 12.0006,-21.9302 L 12.0055,-21.7907 L 12.0152,-21.6514
 L 12.0298,-21.5125 L 12.0493,-21.3743 L 12.0735,-21.2368 L 12.1025,-21.1002 L 12.1363,-20.9647 L 12.1748,-20.8305
 L 12.2179,-20.6977 L 12.2657,-20.5665 L 12.318,-20.4371 L 12.3748,-20.3095 L 12.436,-20.1841 L 12.5015,-20.0608
 L 14.5713,-16.4758 L 14.6453,-16.3573 L 14.7234,-16.2416 L 14.8055,-16.1286 L 14.8914,-16.0186 L 14.9812,-15.9117
 L 15.0746,-15.8079 L 15.1716,-15.7075 L 15.272,-15.6105 L 15.3758,-15.5171 L 15.4827,-15.4273 L 15.5927,-15.3414
 L 15.7057,-15.2593 L 15.8215,-15.1812 L 15.9398,-15.1072 L 16.0608,-15.0374 L 16.1841,-14.9719 L 16.3095,-14.9107
 L 16.4371,-14.8539 L 16.5665,-14.8016 L 16.6977,-14.7538 L 16.8305,-14.7107 L 16.9647,-14.6722 L 17.1002,-14.6384
 L 17.2368,-14.6094 L 17.3743,-14.5852 L 17.5125,-14.5657 L 17.6514,-14.5511 L 17.7907,-14.5414 L 17.9302,-14.5365
 L 22,-14.5359 z
M 37.084,-16.151 L 37.2406,-16.1633 L 37.3963,-16.1838 L 37.5508,-16.2124 L 37.7035,-16.2491 L 37.8541,-16.2937
 L 38.0022,-16.3461 L 38.1472,-16.4062 L 38.289,-16.4738 L 38.427,-16.5488 L 38.561,-16.6308 L 38.6478,-16.6894
 L 40.2325,-17.8407 L 40.3554,-17.9385 L 40.473,-18.0426 L 40.5851,-18.1527 L 40.6912,-18.2685 L 40.7911,-18.3897
 L 40.8845,-18.5159 L 40.9712,-18.6469 L 41.0509,-18.7822 L 41.1234,-18.9215 L 41.1886,-19.0645 L 41.2461,-19.2106
 L 41.2636,-19.2599 L 41.8689,-21.1229 L 41.9109,-21.2742 L 41.9449,-21.4276 L 41.9708,-21.5825 L 41.9886,-21.7385
 L 41.9982,-21.8953 L 41.9995,-22.0524 L 41.9927,-22.2093 L 41.9776,-22.3656 L 41.9544,-22.5209 L 41.9231,-22.6749
 L 41.8838,-22.8269 L 41.8689,-22.8771 L 41.2636,-24.7401 L 41.2086,-24.8872 L 41.146,-25.0312 L 41.0759,-25.1718
 L 40.9986,-25.3085 L 40.9142,-25.4409 L 40.823,-25.5688 L 40.7252,-25.6917 L 40.6211,-25.8093 L 40.511,-25.9214
 L 40.3952,-26.0275 L 40.274,-26.1274 L 40.2325,-26.1593 L 38.6478,-27.3106 L 38.5168,-27.3973 L 38.3815,-27.477
 L 38.2422,-27.5495 L 38.0992,-27.6147 L 37.9531,-27.6722 L 37.8042,-27.7221 L 37.6528,-27.7641 L 37.4995,-27.798
 L 37.3446,-27.824 L 37.1885,-27.8418 L 37.0317,-27.8513 L 36.9794,-27.8527 L 35.0206,-27.8527 L 34.8637,-27.8459
 L 34.7074,-27.8308 L 34.552,-27.8076 L 34.3981,-27.7763 L 34.246,-27.737 L 34.0963,-27.6897 L 33.9491,-27.6347
 L 33.8051,-27.5721 L 33.6645,-27.502 L 33.5278,-27.4247 L 33.3954,-27.3403 L 33.3522,-27.3106 L 31.7675,-26.1593
 L 31.6446,-26.0615 L 31.527,-25.9574 L 31.4149,-25.8473 L 31.3088,-25.7315 L 31.2089,-25.6103 L 31.1155,-25.4841
 L 31.0288,-25.3531 L 30.9491,-25.2178 L 30.8766,-25.0785 L 30.8114,-24.9355 L 30.7539,-24.7894 L 30.7364,-24.7401
 L 30.1311,-22.8771 L 30.0891,-22.7258 L 30.0551,-22.5724 L 30.0292,-22.4175 L 30.0114,-22.2615 L 30.0018,-22.1047
 L 30.0005,-21.9476 L 30.0073,-21.7907 L 30.0224,-21.6344 L 30.0456,-21.4791 L 30.0769,-21.3251 L 30.1162,-21.1731
 L 30.1311,-21.1229 L 30.7364,-19.2599 L 30.7914,-19.1128 L 30.854,-18.9688 L 30.9241,-18.8282 L 31.0014,-18.6915
 L 31.0858,-18.5591 L 31.177,-18.4312 L 31.2748,-18.3083 L 31.3789,-18.1907 L 31.489,-18.0786 L 31.6048,-17.9725
 L 31.726,-17.8726 L 31.7675,-17.8407 L 33.3522,-16.6894 L 33.4832,-16.6027 L 33.6185,-16.523 L 33.7578,-16.4505
 L 33.9008,-16.3853 L 34.0469,-16.3278 L 34.1958,-16.2779 L 34.3472,-16.2359 L 34.5005,-16.202 L 34.6554,-16.176
 L 34.8115,-16.1582 L 34.9683,-16.1487 L 35.0206,-16.1473 L 36.927,-16.1468 z
M 10,-0 L -5,-8.66025 L -5,8.66025 z
M 28,-0 L 24,-6.92819 L 16,-6.92819 L 12,-0 L 16,6.92819 L 24,6.92819
 z
M 40.8541,3.5267 L 42,-0 L 40.8541,-3.5267 L 37.8541,-5.70633 L 34.1459,-5.70633 L 31.1459,-3.5267
 L 30,-0 L 31.1459,3.5267 L 34.1459,5.70633 L 37.8541,5.70633 z
" stroke="black" fill="lightgray" stroke-width="0.5"/></svg>
