<?xml version="1.0" standalone="no"?>
<!DOCTYPE svg PUBLIC "-//W3C//DTD SVG 1.1//EN" "http://www.w3.org/Graphics/SVG/1.1/DTD/svg11.dtd">
<svg width="107" height="49" viewBox="-53 -28 107 49" xmlns="http://www.w3.org/2000/svg" version="1.1">
<title>OpenSCAD Model</title>
<path d="
M -13.7017,-22.262 L -10.2127,-22.262 L -9.33768,-20 L -8.27768,-20 L -11.3537,-27.68 L -12.5337,-27.68
 L -15.6577,-20 L -14.5817,-20 z
M -13.3857,-23.072 L -12.4077,-25.588 L -12.2828,-25.925 L -12.1742,-26.2302 L -12.0818,-26.5036 L -11.9567,-26.897
 L -11.7337,-26.2156 L -11.6577,-25.9975 L -11.5817,-25.7916 L -10.5227,-23.072 z
M -6.69037,-23.081 L -6.67032,-23.5444 L -6.61012,-23.9507 L -6.50981,-24.2999 L -6.36937,-24.592 L -6.19081,-24.8226
 L -5.97612,-24.9872 L -5.72531,-25.0861 L -5.43837,-25.119 L -5.28307,-25.1156 L -5.14412,-25.1055 L -5.02156,-25.0886
 L -4.91537,-25.065 L -4.91537,-25.962 L -5.01601,-25.9856 L -5.11588,-26.0025 L -5.215,-26.0126 L -5.31337,-26.016
 L -5.57526,-25.9987 L -5.80588,-25.9467 L -6.00525,-25.8602 L -6.17337,-25.739 L -6.32144,-25.5706 L -6.46063,-25.3422
 L -6.59094,-25.0541 L -6.71237,-24.706 L -6.73438,-24.706 L -6.73706,-24.8541 L -6.75856,-25.4451 L -6.77737,-25.888
 L -7.70137,-25.888 L -7.68738,-25.5207 L -7.67737,-25.1697 L -7.67137,-24.8352 L -7.66937,-24.517 L -7.66937,-20
 L -6.69037,-20 z
M -0.825714,-19.9604 L -0.140594,-20.2257 L 0.376266,-20.6679 L 0.724884,-21.287 L -0.134094,-21.536 L -0.217651,-21.3432
 L -0.332336,-21.1677 L -0.478149,-21.0097 L -0.65509,-20.869 L -0.863464,-20.7539 L -1.10359,-20.6717 L -1.37547,-20.6224
 L -1.67909,-20.606 L -2.05847,-20.6412 L -2.38959,-20.7467 L -2.67247,-20.9227 L -2.90709,-21.169 L -3.09085,-21.4806
 L -3.22209,-21.8512 L -3.30084,-22.2811 L -3.32709,-22.77 L 0.882889,-22.77 L 0.882889,-22.9 L 0.720398,-24.2632
 L 0.232895,-25.237 L -0.57959,-25.8212 L -1.71709,-26.016 L -2.31548,-25.9671 L -2.84059,-25.8202 L -3.29247,-25.5756
 L -3.6711,-25.233 L -3.97034,-24.7987 L -4.1841,-24.2787 L -4.31235,-23.6732 L -4.35509,-22.982 L -4.31235,-22.2576
 L -4.1841,-21.6282 L -3.97034,-21.0941 L -3.6711,-20.655 L -3.2901,-20.3124 L -2.8311,-20.0677 L -2.2941,-19.9209
 L -1.67909,-19.872 z
M -3.3161,-23.52 L -3.27559,-23.9114 L -3.18709,-24.2585 L -3.0506,-24.5614 L -2.86609,-24.82 L -2.63853,-25.0269
 L -2.37384,-25.1747 L -2.07204,-25.2634 L -1.73309,-25.293 L -1.38654,-25.2664 L -1.08284,-25.1867 L -0.822037,-25.0539
 L -0.604095,-24.868 L -0.427032,-24.6247 L -0.288849,-24.319 L -0.189529,-23.9507 L -0.129089,-23.52 z
M 3.80608,-19.8896 L 4.12308,-19.9425 L 4.41307,-20.0306 L 4.67607,-20.154 L 4.91788,-20.3198 L 5.14432,-20.5352
 L 5.35538,-20.8003 L 5.55107,-21.115 L 5.58408,-21.115 L 5.61395,-20.8307 L 5.67058,-20.587 L 5.75395,-20.3837
 L 5.86407,-20.221 L 6.00658,-20.0963 L 6.18607,-20.0072 L 6.40257,-19.9538 L 6.65607,-19.936 L 6.84851,-19.9415
 L 7.03882,-19.9578 L 7.22701,-19.9849 L 7.41307,-20.023 L 7.41307,-20.632 L 7.32544,-20.6154 L 7.24257,-20.6035
 L 7.16444,-20.5964 L 7.09106,-20.594 L 6.94345,-20.6078 L 6.82156,-20.6492 L 6.72545,-20.7183 L 6.65508,-20.815
 L 6.60519,-20.9395 L 6.56956,-21.091 L 6.5482,-21.2695 L 6.54108,-21.475 L 6.54108,-24.024 L 6.50595,-24.4799
 L 6.40057,-24.8785 L 6.22495,-25.2199 L 5.97906,-25.504 L 5.66414,-25.728 L 5.28032,-25.888 L 4.82764,-25.984
 L 4.30608,-26.016 L 3.36551,-25.9177 L 2.65782,-25.623 L 2.18301,-25.1317 L 1.94107,-24.444 L 2.96307,-24.352
 L 3.00807,-24.5761 L 3.08307,-24.7675 L 3.18806,-24.9261 L 3.32307,-25.052 L 3.49606,-25.1478 L 3.71407,-25.2162
 L 3.97707,-25.2573 L 4.28506,-25.271 L 4.59076,-25.2512 L 4.85281,-25.192 L 5.07126,-25.0932 L 5.24606,-24.955
 L 5.37994,-24.7716 L 5.47557,-24.5362 L 5.53294,-24.2491 L 5.55206,-23.91 L 5.55206,-23.584 L 4.22607,-23.562
 L 3.6017,-23.5169 L 3.06956,-23.4145 L 2.6297,-23.2549 L 2.28207,-23.038 L 2.01826,-22.7659 L 1.82982,-22.4405
 L 1.71675,-22.0619 L 1.67908,-21.63 L 1.707,-21.2423 L 1.79082,-20.8982 L 1.93051,-20.5978 L 2.12607,-20.341
 L 2.3772,-20.1358 L 2.68356,-19.9893 L 3.0452,-19.9013 L 3.46207,-19.872 z
M 3.45782,-20.6224 L 3.25906,-20.6715 L 3.08781,-20.7534 L 2.94408,-20.868 L 2.83076,-21.0132 L 2.74982,-21.1857
 L 2.70126,-21.3857 L 2.68507,-21.613 L 2.69701,-21.8239 L 2.73282,-22.0135 L 2.79251,-22.1819 L 2.87607,-22.329
 L 2.98201,-22.4571 L 3.10883,-22.5672 L 3.25652,-22.6596 L 3.42506,-22.734 L 3.62502,-22.7924 L 3.86682,-22.8357
 L 4.15051,-22.8639 L 4.47607,-22.877 L 5.55206,-22.899 L 5.55206,-22.412 L 5.53688,-22.1865 L 5.49132,-21.964
 L 5.41539,-21.7445 L 5.30907,-21.528 L 5.17645,-21.3249 L 5.02158,-21.1445 L 4.84445,-20.9869 L 4.64507,-20.852
 L 4.42751,-20.7444 L 4.19482,-20.6675 L 3.94701,-20.6214 L 3.68407,-20.606 z
M 10.5523,-19.9002 L 11.0235,-19.9848 L 11.4318,-20.1257 L 11.7773,-20.323 L 12.052,-20.5722 L 12.2482,-20.869
 L 12.366,-21.2132 L 12.4052,-21.605 L 12.3984,-21.7689 L 12.378,-21.9235 L 12.3439,-22.0689 L 12.2962,-22.205
 L 12.2361,-22.3331 L 12.1647,-22.4532 L 12.0821,-22.5656 L 11.9883,-22.67 L 11.8802,-22.7682 L 11.754,-22.862
 L 11.6097,-22.9512 L 11.4473,-23.036 L 11.249,-23.1209 L 10.9962,-23.2095 L 10.689,-23.3019 L 10.3273,-23.398
 L 9.95206,-23.4931 L 9.64751,-23.5772 L 9.41356,-23.6506 L 9.25024,-23.713 L 9.13049,-23.7731 L 9.02625,-23.8392
 L 8.9375,-23.9116 L 8.86426,-23.99 L 8.80737,-24.0769 L 8.76675,-24.1747 L 8.74237,-24.2834 L 8.73425,-24.403
 L 8.75394,-24.5936 L 8.813,-24.7585 L 8.91144,-24.8976 L 9.04926,-25.011 L 9.22894,-25.0989 L 9.452,-25.1617
 L 9.71844,-25.1994 L 10.0282,-25.212 L 10.3121,-25.1989 L 10.5658,-25.1595 L 10.7891,-25.0939 L 10.9823,-25.002
 L 11.1431,-24.8861 L 11.2697,-24.7475 L 11.3621,-24.5861 L 11.4203,-24.402 L 12.3013,-24.511 L 12.1989,-24.8631
 L 12.0437,-25.1635 L 11.8359,-25.4121 L 11.5753,-25.609 L 11.2637,-25.759 L 10.902,-25.8662 L 10.4902,-25.9306
 L 10.0282,-25.952 L 9.51199,-25.9257 L 9.06125,-25.8467 L 8.67599,-25.7152 L 8.35625,-25.531 L 8.10556,-25.2966
 L 7.9265,-25.0142 L 7.81906,-24.6841 L 7.78325,-24.306 L 7.79581,-24.097 L 7.8335,-23.905 L 7.89632,-23.73
 L 7.98425,-23.572 L 8.09444,-23.4281 L 8.224,-23.2955 L 8.37294,-23.1741 L 8.54124,-23.064 L 8.75006,-22.9589
 L 9.0195,-22.8527 L 9.34956,-22.7454 L 9.74025,-22.637 L 10.4422,-22.453 L 10.6904,-22.3773 L 10.9017,-22.2922
 L 11.0764,-22.1978 L 11.2142,-22.094 L 11.3188,-21.9773 L 11.3935,-21.8442 L 11.4383,-21.6948 L 11.4532,-21.529
 L 11.4317,-21.3152 L 11.367,-21.13 L 11.2592,-20.9732 L 11.1082,-20.845 L 10.9108,-20.7452 L 10.6633,-20.674
 L 10.3658,-20.6312 L 10.0182,-20.617 L 9.68925,-20.6307 L 9.39825,-20.672 L 9.14525,-20.7407 L 8.93025,-20.837
 L 8.75137,-20.9632 L 8.60574,-21.121 L 8.49338,-21.3102 L 8.41425,-21.531 L 7.54926,-21.362 L 7.66475,-21.0038
 L 7.83224,-20.6962 L 8.05176,-20.4393 L 8.32326,-20.233 L 8.65269,-20.0751 L 9.045,-19.9623 L 9.50018,-19.8946
 L 10.0182,-19.872 z
M 14.735,-25.888 L 13.675,-25.888 L 13.675,-24.736 L 14.735,-24.736 z
M 14.735,-21.152 L 13.675,-21.152 L 13.675,-20 L 14.735,-20 z
M 44.1745,9.99847 L 44.349,9.9939 L 44.5233,9.98628 L 44.6976,9.97563 L 44.8716,9.96194 L 45.0453,9.94521
 L 45.2187,9.92546 L 45.3917,9.90268 L 45.5643,9.87688 L 45.7365,9.84807 L 45.9081,9.81627 L 46.0791,9.78146
 L 46.2495,9.7437 L 46.4192,9.70296 L 46.5882,9.65926 L 46.7564,9.61261 L 46.9237,9.56303 L 47.0902,9.51056
 L 47.2557,9.45518 L 47.4202,9.39691 L 47.5837,9.3358 L 47.7461,9.27184 L 47.9073,9.20505 L 48.0674,9.13545
 L 48.2262,9.06306 L 48.3837,8.98793 L 48.5399,8.91006 L 48.6947,8.82947 L 48.8481,8.74619 L 49,8.66025
 L 49.1504,8.57167 L 49.2992,8.48047 L 49.4464,8.3867 L 49.5919,8.29037 L 49.7358,8.19151 L 49.8778,8.09016
 L 50.0181,7.98634 L 50.1566,7.8801 L 50.2932,7.77145 L 50.4279,7.66043 L 50.5606,7.54709 L 50.6913,7.43144
 L 50.82,7.31352 L 50.9466,7.19339 L 51.0711,7.07106 L 51.1934,6.94658 L 51.3135,6.81998 L 51.4314,6.6913
 L 51.5471,6.56058 L 51.6604,6.42787 L 51.7715,6.2932 L 51.8801,6.1566 L 51.9863,6.01814 L 52.0902,5.87784
 L 52.1915,5.73576 L 52.2904,5.59192 L 52.3867,5.44638 L 52.4805,5.29918 L 52.5717,5.15038 L 52.6602,5
 L 52.7462,4.84808 L 52.8295,4.6947 L 52.9101,4.5399 L 52.9879,4.3837 L 53.0631,4.22618 L 53.1355,4.06735
 L 53.205,3.9073 L 53.2718,3.74606 L 53.3358,3.58368 L 53.3969,3.4202 L 53.4552,3.25568 L 53.5106,3.09016
 L 53.563,2.92371 L 53.6126,2.75636 L 53.6593,2.58818 L 53.703,2.4192 L 53.7437,2.2495 L 53.7815,2.07912
 L 53.8163,1.90808 L 53.8481,1.73648 L 53.8769,1.56433 L 53.9027,1.39172 L 53.9255,1.21869 L 53.9452,1.04527
 L 53.9619,0.871552 L 53.9756,0.697556 L 53.9863,0.523346 L 53.9939,0.348984 L 53.9985,0.174515 L 54,-0
 L 53.9985,-0.174515 L 53.9939,-0.348984 L 53.9863,-0.523346 L 53.9756,-0.697556 L 53.9619,-0.871552 L 53.9452,-1.04527
 L 53.9255,-1.21869 L 53.9027,-1.39172 L 53.8769,-1.56433 L 53.8481,-1.73648 L 53.8163,-1.90808 L 53.7815,-2.07912
 L 53.7437,-2.2495 L 53.703,-2.4192 L 53.6593,-2.58818 L 53.6126,-2.75636 L 53.563,-2.92371 L 53.5106,-3.09016
 L 53.4552,-3.25568 L 53.3969,-3.4202 L 53.3358,-3.58368 L 53.2718,-3.74606 L 53.205,-3.9073 L 53.1355,-4.06735
 L 53.0631,-4.22618 L 52.9879,-4.3837 L 52.9101,-4.5399 L 52.8295,-4.6947 L 52.7462,-4.84808 L 52.6602,-5
 L 52.5717,-5.15038 L 52.4805,-5.29918 L 52.3867,-5.44638 L 52.2904,-5.59192 L 52.1915,-5.73576 L 52.0902,-5.87784
 L 51.9863,-6.01814 L 51.8801,-6.1566 L 51.7715,-6.2932 L 51.6604,-6.42787 L 51.5471,-6.56058 L 51.4314,-6.6913
 L 51.3135,-6.81998 L 51.1934,-6.94658 L 51.0711,-7.07106 L 50.9466,-7.19339 L 50.82,-7.31352 L 50.6913,-7.43144
 L 50.5606,-7.54709 L 50.4279,-7.66043 L 50.2932,-7.77145 L 50.1566,-7.8801 L 50.0181,-7.98634 L 49.8778,-8.09016
 L 49.7358,-8.19151 L 49.5919,-8.29037 L 49.4464,-8.3867 L 49.2992,-8.48047 L 49.1504,-8.57167 L 49,-8.66025
 L 48.8481,-8.74619 L 48.6947,-8.82947 L 48.5399,-8.91006 L 48.3837,-8.98793 L 48.2262,-9.06306 L 48.0674,-9.13545
 L 47.9073,-9.20505 L 47.7461,-9.27184 L 47.5837,-9.3358 L 47.4202,-9.39691 L 47.2557,-9.45518 L 47.0902,-9.51056
 L 46.9237,-9.56303 L 46.7564,-9.61261 L 46.5882,-9.65926 L 46.4192,-9.70296 L 46.2495,-9.7437 L 46.0791,-9.78146
 L 45.9081,-9.81627 L 45.7365,-9.84807 L 45.5643,-9.87688 L 45.3917,-9.90268 L 45.2187,-9.92546 L 45.0453,-9.94521
 L 44.8716,-9.96194 L 44.6976,-9.97563 L 44.5233,-9.98628 L 44.349,-9.9939 L 44.1745,-9.99847 L 44,-10
 L 43.8255,-9.99847 L 43.651,-9.9939 L 43.4767,-9.98628 L 43.3024,-9.97563 L 43.1284,-9.96194 L 42.9547,-9.94521
 L 42.7813,-9.92546 L 42.6083,-9.90268 L 42.4357,-9.87688 L 42.2635,-9.84807 L 42.0919,-9.81627 L 41.9209,-9.78146
 L 41.7505,-9.7437 L 41.5808,-9.70296 L 41.4118,-9.65926 L 41.2436,-9.61261 L 41.0763,-9.56303 L 40.9098,-9.51056
 L 40.7443,-9.45518 L 40.5798,-9.39691 L 40.4163,-9.3358 L 40.2539,-9.27184 L 40.0927,-9.20505 L 39.9326,-9.13545
 L 39.7738,-9.06306 L 39.6163,-8.98793 L 39.4601,-8.91006 L 39.3053,-8.82947 L 39.1519,-8.74619 L 39,-8.66025
 L 38.8496,-8.57167 L 38.7008,-8.48047 L 38.5536,-8.3867 L 38.4081,-8.29037 L 38.2642,-8.19151 L 38.1222,-8.09016
 L 37.9819,-7.98634 L 37.8434,-7.8801 L 37.7068,-7.77145 L 37.5721,-7.66043 L 37.4394,-7.54709 L 37.3087,-7.43144
 L 37.18,-7.31352 L 37.0534,-7.19339 L 36.9289,-7.07106 L 36.8066,-6.94658 L 36.6865,-6.81998 L 36.5686,-6.6913
 L 36.4529,-6.56058 L 36.3396,-6.42787 L 36.2285,-6.2932 L 36.1199,-6.1566 L 36.0137,-6.01814 L 35.9098,-5.87784
 L 35.8085,-5.73576 L 35.7096,-5.59192 L 35.6133,-5.44638 L 35.5195,-5.29918 L 35.4283,-5.15038 L 35.3398,-5
 L 35.2538,-4.84808 L 35.1705,-4.6947 L 35.0899,-4.5399 L 35.0121,-4.3837 L 34.9369,-4.22618 L 34.8645,-4.06735
 L 34.795,-3.9073 L 34.7282,-3.74606 L 34.6642,-3.58368 L 34.6031,-3.4202 L 34.5448,-3.25568 L 34.4894,-3.09016
 L 34.437,-2.92371 L 34.3874,-2.75636 L 34.3407,-2.58818 L 34.297,-2.4192 L 34.2563,-2.2495 L 34.2185,-2.07912
 L 34.1837,-1.90808 L 34.1519,-1.73648 L 34.1231,-1.56433 L 34.0973,-1.39172 L 34.0745,-1.21869 L 34.0548,-1.04527
 L 34.0381,-0.871552 L 34.0244,-0.697556 L 34.0137,-0.523346 L 34.0061,-0.348984 L 34.0015,-0.174515 L 34,-0
 L 34.0015,0.174515 L 34.0061,0.348984 L 34.0137,0.523346 L 34.0244,0.697556 L 34.0381,0.871552 L 34.0548,1.04527
 L 34.0745,1.21869 L 34.0973,1.39172 L 34.1231,1.56433 L 34.1519,1.73648 L 34.1837,1.90808 L 34.2185,2.07912
 L 34.2563,2.2495 L 34.297,2.4192 L 34.3407,2.58818 L 34.3874,2.75636 L 34.437,2.92371 L 34.4894,3.09016
 L 34.5448,3.25568 L 34.6031,3.4202 L 34.6642,3.58368 L 34.7282,3.74606 L 34.795,3.9073 L 34.8645,4.06735
 L 34.9369,4.22618 L 35.0121,4.3837 L 35.0899,4.5399 L 35.1705,4.6947 L 35.2538,4.84808 L 35.3398,5
 L 35.4283,5.15038 L 35.5195,5.29918 L 35.6133,5.44638 L 35.7096,5.59192 L 35.8085,5.73576 L 35.9098,5.87784
 L 36.0137,6.01814 L 36.1199,6.1566 L 36.2285,6.2932 L 36.3396,6.42787 L 36.4529,6.56058 L 36.5686,6.6913
 L 36.6865,6.81998 L 36.8066,6.94658 L 36.9289,7.07106 L 37.0534,7.19339 L 37.18,7.31352 L 37.3087,7.43144
 L 37.4394,7.54709 L 37.5721,7.66043 L 37.7068,7.77145 L 37.8434,7.8801 L 37.9819,7.98634 L 38.1222,8.09016
 L 38.2642,8.19151 L 38.4081,8.29037 L 38.5536,8.3867 L 38.7008,8.48047 L 38.8496,8.57167 L 39,8.66025
 L 39.1519,8.74619 L 39.3053,8.82947 L 39.4601,8.91006 L 39.6163,8.98793 L 39.7738,9.06306 L 39.9326,9.13545
 L 40.0927,9.20505 L 40.2539,9.27184 L 40.4163,9.3358 L 40.5798,9.39691 L 40.7443,9.45518 L 40.9098,9.51056
 L 41.0763,9.56303 L 41.2436,9.61261 L 41.4118,9.65926 L 41.5808,9.70296 L 41.7505,9.7437 L 41.9209,9.78146
 L 42.0919,9.81627 L 42.2635,9.84807 L 42.4357,9.87688 L 42.6083,9.90268 L 42.7813,9.92546 L 42.9547,9.94521
 L 43.1284,9.96194 L 43.3024,9.97563 L 43.4767,9.98628 L 43.651,9.9939 L 43.8255,9.99847 L 44,10
 z
M -12,-0 L -22,-10 L -32,-0 L -22,10 z
M 30.0902,5.87784 L 32,-0 L 30.0902,-5.87784 L 25.0902,-9.51056 L 18.9098,-9.51056 L 13.9098,-5.87784
 L 12,-0 L 13.9098,5.87784 L 18.9098,9.51056 L 25.0902,9.51056 z
M -34,-0 L -49,-8.66025 L -49,8.66025 z
M 10,-0 L 5,-8.66025 L -5,-8.66025 L -10,-0 L -5,8.66025 L 5,8.66025
 z
M -21.305,20.0644 L -20.7639,19.8735 L -20.3035,19.5554 L -19.9241,19.11 L -19.627,18.5439 L -19.4148,17.8635
 L -19.2875,17.0689 L -19.2451,16.16 L -19.2855,15.2378 L -19.4066,14.436 L -19.6085,13.7548 L -19.8911,13.194
 L -20.2585,12.7556 L -20.7148,12.4425 L -21.26,12.2546 L -21.8941,12.192 L -22.5448,12.254 L -23.1018,12.4398
 L -23.5653,12.7495 L -23.9351,13.183 L -24.2177,13.7403 L -24.4196,14.4223 L -24.5407,15.2288 L -24.5811,16.16
 L -24.5395,17.0734 L -24.4148,17.8705 L -24.207,18.5514 L -23.9161,19.116 L -23.5424,19.5588 L -23.0863,19.875
 L -22.5479,20.0647 L -21.9271,20.128 z
M -22.3225,19.2814 L -22.6708,19.1385 L -22.96,18.9004 L -23.1901,18.567 L -23.3655,18.1308 L -23.4908,17.5843
 L -23.566,16.9273 L -23.5911,16.16 L -23.5664,15.3726 L -23.4923,14.7045 L -23.3689,14.1556 L -23.1961,13.726
 L -22.9662,13.4023 L -22.6726,13.171 L -22.3152,13.0323 L -21.8941,12.986 L -21.4833,13.0329 L -21.1348,13.1738
 L -20.8488,13.4084 L -20.6251,13.737 L -20.4567,14.1701 L -20.3363,14.7183 L -20.2642,15.3816 L -20.2401,16.16
 L -20.2654,16.9139 L -20.3411,17.5638 L -20.4673,18.1095 L -20.6441,18.551 L -20.875,18.8914 L -21.1638,19.1345
 L -21.5105,19.2804 L -21.9151,19.329 z
M 38.6512,20.0912 L 39.1695,19.9808 L 39.6157,19.7967 L 39.9897,19.539 L 40.2855,19.2143 L 40.4967,18.829
 L 40.6235,18.3833 L 40.6657,17.877 L 40.6357,17.5214 L 40.5457,17.1975 L 40.3957,16.9054 L 40.1857,16.645
 L 39.9224,16.4248 L 39.6112,16.254 L 39.2524,16.1328 L 38.8457,16.061 L 38.8457,16.039 L 39.2149,15.9389
 L 39.5372,15.8018 L 39.8129,15.6274 L 40.0417,15.416 L 40.222,15.1689 L 40.3507,14.8875 L 40.428,14.5719
 L 40.4537,14.222 L 40.4137,13.7694 L 40.2935,13.3695 L 40.0932,13.0224 L 39.8127,12.728 L 39.4606,12.4935
 L 39.044,12.326 L 38.563,12.2255 L 38.0177,12.192 L 37.5128,12.225 L 37.056,12.324 L 36.6473,12.489
 L 36.2867,12.72 L 35.9855,13.0094 L 35.7547,13.3505 L 35.5945,13.7434 L 35.5047,14.188 L 36.4887,14.264
 L 36.5427,13.9791 L 36.6385,13.7283 L 36.7762,13.5116 L 36.9557,13.329 L 37.1718,13.1838 L 37.419,13.08
 L 37.6973,13.0178 L 38.0067,12.997 L 38.3422,13.0193 L 38.6337,13.0863 L 38.8812,13.1978 L 39.0847,13.354
 L 39.2435,13.5482 L 39.357,13.7748 L 39.425,14.0337 L 39.4477,14.325 L 39.4199,14.6186 L 39.3365,14.8785
 L 39.1974,15.1046 L 39.0027,15.297 L 38.7576,15.4506 L 38.4672,15.5603 L 38.1316,15.6261 L 37.7507,15.648
 L 37.2157,15.648 L 37.2157,16.496 L 37.7717,16.496 L 38.2005,16.5183 L 38.5757,16.5853 L 38.8975,16.6968
 L 39.1657,16.853 L 39.377,17.049 L 39.528,17.2798 L 39.6185,17.5454 L 39.6487,17.846 L 39.6223,18.189
 L 39.543,18.487 L 39.4108,18.74 L 39.2257,18.948 L 38.9943,19.1099 L 38.723,19.2255 L 38.4118,19.2949
 L 38.0607,19.318 L 37.4014,19.233 L 36.9025,18.978 L 36.5639,18.553 L 36.3857,17.958 L 35.3737,18.05
 L 35.4745,18.5326 L 35.6457,18.9523 L 35.8875,19.3091 L 36.1997,19.603 L 36.5767,19.8327 L 37.0125,19.9968
 L 37.5072,20.0952 L 38.0607,20.128 z
M 22.5115,20.0613 L 23.0644,19.8613 L 23.5405,19.5278 L 23.9399,19.061 L 24.2558,18.4696 L 24.4814,17.7635
 L 24.6168,16.9426 L 24.6619,16.007 L 24.6207,15.1119 L 24.4969,14.3365 L 24.2906,13.6809 L 24.0019,13.145
 L 23.6335,12.7281 L 23.1874,12.4303 L 22.6635,12.2516 L 22.0619,12.192 L 21.4929,12.2352 L 20.9899,12.3648
 L 20.5529,12.5807 L 20.1819,12.883 L 19.8862,13.2608 L 19.6749,13.703 L 19.5482,14.2098 L 19.5059,14.781
 L 19.5447,15.3394 L 19.6612,15.8398 L 19.8552,16.282 L 20.1269,16.666 L 20.4638,16.9766 L 20.8524,17.1985
 L 21.2928,17.3316 L 21.7849,17.376 L 22.0949,17.3575 L 22.3919,17.302 L 22.6759,17.2095 L 22.9469,17.08
 L 23.192,16.9195 L 23.3981,16.735 L 23.5655,16.5265 L 23.6939,16.294 L 23.6553,16.9844 L 23.5614,17.5905
 L 23.4123,18.1124 L 23.2079,18.55 L 22.952,18.8956 L 22.6484,19.1425 L 22.297,19.2906 L 21.8979,19.34
 L 21.4402,19.2801 L 21.0712,19.1005 L 20.7907,18.8011 L 20.5989,18.382 L 19.6639,18.529 L 19.8002,18.9214
 L 19.9749,19.2558 L 20.1882,19.532 L 20.4399,19.75 L 20.7337,19.9154 L 21.0719,20.0335 L 21.4547,20.1044
 L 21.8819,20.128 z
M 21.6869,16.5734 L 21.3919,16.4815 L 21.1329,16.3284 L 20.9099,16.114 L 20.731,15.8469 L 20.6032,15.5358
 L 20.5265,15.1805 L 20.5009,14.781 L 20.5265,14.3894 L 20.6032,14.0405 L 20.731,13.7344 L 20.9099,13.471
 L 21.1336,13.2588 L 21.3947,13.1073 L 21.6931,13.0163 L 22.0289,12.986 L 22.3683,13.0214 L 22.6716,13.1278
 L 22.9388,13.3049 L 23.1699,13.553 L 23.3563,13.8588 L 23.4894,14.2103 L 23.5693,14.6073 L 23.5959,15.05
 L 23.5828,15.2709 L 23.5434,15.4795 L 23.4778,15.6759 L 23.3859,15.86 L 23.2711,16.0275 L 23.1369,16.175
 L 22.9832,16.3025 L 22.8099,16.41 L 22.6232,16.4949 L 22.4289,16.5555 L 22.2272,16.5919 L 22.0179,16.604
 z
M 18.5957,19.168 L 14.5867,19.168 L 14.6816,18.9751 L 14.8022,18.7785 L 14.9486,18.5781 L 15.1207,18.374
 L 15.3223,18.1612 L 15.556,17.9358 L 15.8218,17.6977 L 16.1197,17.447 L 16.6437,17.0134 L 17.0755,16.6405
 L 17.4152,16.3284 L 17.6627,16.077 L 17.8522,15.8556 L 18.0167,15.6343 L 18.1562,15.4131 L 18.2707,15.192
 L 18.3604,14.9702 L 18.4245,14.7478 L 18.4629,14.5247 L 18.4757,14.301 L 18.4367,13.8244 L 18.3197,13.4055
 L 18.1247,13.0444 L 17.8517,12.741 L 17.5062,12.5008 L 17.0935,12.3293 L 16.6137,12.2263 L 16.0667,12.192
 L 15.5618,12.226 L 15.105,12.328 L 14.6963,12.498 L 14.3357,12.736 L 14.0345,13.0314 L 13.8037,13.3738
 L 13.6435,13.7629 L 13.5537,14.199 L 14.5537,14.291 L 14.6102,14.0011 L 14.7087,13.7455 L 14.8492,13.5241
 L 15.0317,13.337 L 15.2491,13.1883 L 15.494,13.082 L 15.7666,13.0183 L 16.0667,12.997 L 16.3787,13.019
 L 16.6545,13.0848 L 16.8942,13.1944 L 17.0977,13.348 L 17.2605,13.5408 L 17.3767,13.7693 L 17.4465,14.0333
 L 17.4697,14.333 L 17.4562,14.5619 L 17.4157,14.7785 L 17.3482,14.9829 L 17.2537,15.175 L 17.1379,15.3585
 L 17.0052,15.538 L 16.8559,15.7135 L 16.6897,15.885 L 16.5099,16.0541 L 16.3195,16.2233 L 16.1184,16.3926
 L 15.6897,16.7346 L 15.4715,16.9145 L 15.2522,17.1016 L 15.0317,17.296 L 14.8133,17.4998 L 14.6,17.7153
 L 14.3918,17.9423 L 14.1887,18.181 L 13.9959,18.4349 L 13.8185,18.7075 L 13.6564,18.9989 L 13.5097,19.309
 L 13.5097,20 L 18.5957,20 z
M 6.72914,20.0644 L 7.27032,19.8735 L 7.73065,19.5554 L 8.11008,19.11 L 8.40715,18.5439 L 8.61934,17.8635
 L 8.74664,17.0689 L 8.78908,16.16 L 8.7487,15.2378 L 8.62758,14.436 L 8.4257,13.7548 L 8.14308,13.194
 L 7.77565,12.7556 L 7.31934,12.4425 L 6.77414,12.2546 L 6.14008,12.192 L 5.4894,12.254 L 4.93233,12.4398
 L 4.46889,12.7495 L 4.09908,13.183 L 3.81645,13.7403 L 3.61458,14.4223 L 3.49345,15.2288 L 3.45308,16.16
 L 3.49464,17.0734 L 3.61934,17.8705 L 3.82715,18.5514 L 4.11809,19.116 L 4.49178,19.5588 L 4.94783,19.875
 L 5.48627,20.0647 L 6.10709,20.128 z
M 5.71164,19.2814 L 5.36333,19.1385 L 5.07414,18.9004 L 4.84409,18.567 L 4.66864,18.1308 L 4.54333,17.5843
 L 4.46814,16.9273 L 4.44308,16.16 L 4.46777,15.3726 L 4.54184,14.7045 L 4.66527,14.1556 L 4.83809,13.726
 L 5.06796,13.4023 L 5.36159,13.171 L 5.71896,13.0323 L 6.14008,12.986 L 6.55089,13.0329 L 6.89934,13.1738
 L 7.18539,13.4084 L 7.40909,13.737 L 7.57751,14.1701 L 7.69783,14.7183 L 7.77002,15.3816 L 7.79408,16.16
 L 7.76883,16.9139 L 7.69308,17.5638 L 7.56683,18.1095 L 7.39008,18.551 L 7.15915,18.8914 L 6.87033,19.1345
 L 6.52365,19.2804 L 6.11908,19.329 z
M 0.769028,20.0837 L 1.2554,19.9508 L 1.67903,19.7292 L 2.0399,19.419 L 2.32866,19.0318 L 2.5349,18.58
 L 2.65865,18.0638 L 2.69991,17.483 L 2.66084,16.9454 L 2.54366,16.4655 L 2.34834,16.0434 L 2.07491,15.679
 L 1.73546,15.3855 L 1.34116,15.1758 L 0.891968,15.0499 L 0.387909,15.008 L 0.0832214,15.0242 L -0.203827,15.0728
 L -0.473267,15.1537 L -0.725082,15.267 L -0.953964,15.4108 L -1.15558,15.5843 L -1.32996,15.7873 L -1.47708,16.02
 L -1.44827,15.3256 L -1.36183,14.7183 L -1.21777,14.1981 L -1.01608,13.765 L -0.761459,13.4242 L -0.459579,13.1808
 L -0.110458,13.0347 L 0.285904,12.986 L 0.731842,13.0444 L 1.09166,13.2198 L 1.36534,13.5119 L 1.5529,13.921
 L 2.4879,13.752 L 2.18146,13.0695 L 1.71416,12.582 L 1.08597,12.2895 L 0.296906,12.192 L -0.324768,12.2591
 L -0.870834,12.4603 L -1.34126,12.7956 L -1.73608,13.265 L -2.04846,13.8593 L -2.27158,14.57 L -2.40546,15.3973
 L -2.45009,16.341 L -2.40721,17.2109 L -2.27858,17.9708 L -2.06421,18.6204 L -1.76408,19.16 L -1.38246,19.5835
 L -0.924576,19.886 L -0.390457,20.0675 L 0.21991,20.128 z
M -0.140579,19.3041 L -0.43808,19.1963 L -0.70459,19.0166 L -0.940079,18.765 L -1.13214,18.4571 L -1.26933,18.1085
 L -1.35164,17.7191 L -1.37909,17.289 L -1.35265,16.9517 L -1.27333,16.6528 L -1.14114,16.3922 L -0.956085,16.17
 L -0.728027,15.9924 L -0.466827,15.8655 L -0.172516,15.7894 L 0.154907,15.764 L 0.500275,15.7927 L 0.805405,15.8788
 L 1.07028,16.0222 L 1.29491,16.223 L 1.47427,16.4763 L 1.6024,16.778 L 1.67928,17.1283 L 1.7049,17.527
 L 1.67966,17.9274 L 1.6039,18.2825 L 1.47765,18.5924 L 1.3009,18.857 L 1.07983,19.0683 L 0.820648,19.2193
 L 0.523346,19.3098 L 0.187897,19.34 z
M -3.40427,19.168 L -7.41327,19.168 L -7.31839,18.9751 L -7.19777,18.7785 L -7.05139,18.5781 L -6.87926,18.374
 L -6.6777,18.1612 L -6.44402,17.9358 L -6.17819,17.6977 L -5.88026,17.447 L -5.35632,17.0134 L -4.92451,16.6405
 L -4.58482,16.3284 L -4.33727,16.077 L -4.14777,15.8556 L -3.98326,15.6343 L -3.84377,15.4131 L -3.72926,15.192
 L -3.63957,14.9702 L -3.57552,14.7478 L -3.53708,14.5247 L -3.52426,14.301 L -3.56326,13.8244 L -3.68027,13.4055
 L -3.87526,13.0444 L -4.14825,12.741 L -4.49382,12.5008 L -4.90651,12.3293 L -5.38632,12.2263 L -5.93326,12.192
 L -6.4382,12.226 L -6.89502,12.328 L -7.3037,12.498 L -7.66426,12.736 L -7.96552,13.0314 L -8.19626,13.3738
 L -8.35651,13.7629 L -8.44626,14.199 L -7.44626,14.291 L -7.38976,14.0011 L -7.29126,13.7455 L -7.15076,13.5241
 L -6.96826,13.337 L -6.75095,13.1883 L -6.50601,13.082 L -6.23344,13.0183 L -5.93326,12.997 L -5.62132,13.019
 L -5.3455,13.0848 L -5.10582,13.1944 L -4.90227,13.348 L -4.73952,13.5408 L -4.62326,13.7693 L -4.55351,14.0333
 L -4.53026,14.333 L -4.54376,14.5619 L -4.58426,14.7785 L -4.65176,14.9829 L -4.74626,15.175 L -4.86214,15.3585
 L -4.99477,15.538 L -5.14413,15.7135 L -5.31026,15.885 L -5.49008,16.0541 L -5.68051,16.2233 L -5.88158,16.3926
 L -6.31032,16.7346 L -6.52852,16.9145 L -6.74782,17.1016 L -6.96826,17.296 L -7.18671,17.4998 L -7.40001,17.7153
 L -7.6082,17.9423 L -7.81126,18.181 L -8.00407,18.4349 L -8.18152,18.7075 L -8.34357,18.9989 L -8.49026,19.309
 L -8.49026,20 L -3.40427,20 z
M -15.2709,20.0644 L -14.7297,19.8735 L -14.2693,19.5554 L -13.8899,19.11 L -13.5928,18.5439 L -13.3807,17.8635
 L -13.2534,17.0689 L -13.2109,16.16 L -13.2513,15.2378 L -13.3724,14.436 L -13.5743,13.7548 L -13.8569,13.194
 L -14.2243,12.7556 L -14.6807,12.4425 L -15.2259,12.2546 L -15.8599,12.192 L -16.5106,12.254 L -17.0677,12.4398
 L -17.5311,12.7495 L -17.9009,13.183 L -18.1835,13.7403 L -18.3854,14.4223 L -18.5065,15.2288 L -18.5469,16.16
 L -18.5054,17.0734 L -18.3807,17.8705 L -18.1729,18.5514 L -17.8819,19.116 L -17.5082,19.5588 L -17.0522,19.875
 L -16.5137,20.0647 L -15.8929,20.128 z
M -16.2884,19.2814 L -16.6367,19.1385 L -16.9259,18.9004 L -17.1559,18.567 L -17.3314,18.1308 L -17.4567,17.5843
 L -17.5319,16.9273 L -17.5569,16.16 L -17.5322,15.3726 L -17.4582,14.7045 L -17.3347,14.1556 L -17.1619,13.726
 L -16.932,13.4023 L -16.6384,13.171 L -16.281,13.0323 L -15.8599,12.986 L -15.4491,13.0329 L -15.1007,13.1738
 L -14.8146,13.4084 L -14.5909,13.737 L -14.4225,14.1701 L -14.3022,14.7183 L -14.23,15.3816 L -14.2059,16.16
 L -14.2312,16.9139 L -14.3069,17.5638 L -14.4332,18.1095 L -14.6099,18.551 L -14.8409,18.8914 L -15.1297,19.1345
 L -15.4763,19.2804 L -15.8809,19.329 z
M -43.3147,20.0912 L -42.7963,19.9808 L -42.3502,19.7967 L -41.9761,19.539 L -41.6803,19.2143 L -41.4691,18.829
 L -41.3423,18.3833 L -41.3001,17.877 L -41.3301,17.5214 L -41.4201,17.1975 L -41.5701,16.9054 L -41.7801,16.645
 L -42.0435,16.4248 L -42.3546,16.254 L -42.7135,16.1328 L -43.1201,16.061 L -43.1201,16.039 L -42.751,15.9389
 L -42.4286,15.8018 L -42.153,15.6274 L -41.9241,15.416 L -41.7439,15.1689 L -41.6151,14.8875 L -41.5378,14.5719
 L -41.5121,14.222 L -41.5522,13.7694 L -41.6723,13.3695 L -41.8727,13.0224 L -42.1531,12.728 L -42.5053,12.4935
 L -42.9218,12.326 L -43.4028,12.2255 L -43.9481,12.192 L -44.453,12.225 L -44.9098,12.324 L -45.3185,12.489
 L -45.6791,12.72 L -45.9803,13.0094 L -46.2111,13.3505 L -46.3713,13.7434 L -46.4611,14.188 L -45.4771,14.264
 L -45.4231,13.9791 L -45.3273,13.7283 L -45.1897,13.5116 L -45.0101,13.329 L -44.794,13.1838 L -44.5468,13.08
 L -44.2685,13.0178 L -43.9591,12.997 L -43.6236,13.0193 L -43.3321,13.0863 L -43.0846,13.1978 L -42.8811,13.354
 L -42.7223,13.5482 L -42.6088,13.7748 L -42.5408,14.0337 L -42.5181,14.325 L -42.5459,14.6186 L -42.6293,14.8785
 L -42.7684,15.1046 L -42.9631,15.297 L -43.2082,15.4506 L -43.4986,15.5603 L -43.8342,15.6261 L -44.2151,15.648
 L -44.7501,15.648 L -44.7501,16.496 L -44.1941,16.496 L -43.7654,16.5183 L -43.3901,16.5853 L -43.0683,16.6968
 L -42.8001,16.853 L -42.5888,17.049 L -42.4379,17.2798 L -42.3473,17.5454 L -42.3171,17.846 L -42.3435,18.189
 L -42.4229,18.487 L -42.555,18.74 L -42.7401,18.948 L -42.9715,19.1099 L -43.2428,19.2255 L -43.554,19.2949
 L -43.9051,19.318 L -44.5644,19.233 L -45.0633,18.978 L -45.4019,18.553 L -45.5801,17.958 L -46.5921,18.05
 L -46.4913,18.5326 L -46.3201,18.9523 L -46.0783,19.3091 L -45.7661,19.603 L -45.3891,19.8327 L -44.9533,19.9968
 L -44.4586,20.0952 L -43.9051,20.128 z
M -25.4043,19.168 L -29.4133,19.168 L -29.3184,18.9751 L -29.1978,18.7785 L -29.0514,18.5781 L -28.8793,18.374
 L -28.6777,18.1612 L -28.444,17.9358 L -28.1782,17.6977 L -27.8803,17.447 L -27.3563,17.0134 L -26.9245,16.6405
 L -26.5848,16.3284 L -26.3373,16.077 L -26.1478,15.8556 L -25.9833,15.6343 L -25.8438,15.4131 L -25.7293,15.192
 L -25.6396,14.9702 L -25.5755,14.7478 L -25.5371,14.5247 L -25.5243,14.301 L -25.5633,13.8244 L -25.6803,13.4055
 L -25.8753,13.0444 L -26.1483,12.741 L -26.4938,12.5008 L -26.9065,12.3293 L -27.3863,12.2263 L -27.9333,12.192
 L -28.4382,12.226 L -28.895,12.328 L -29.3037,12.498 L -29.6643,12.736 L -29.9655,13.0314 L -30.1963,13.3738
 L -30.3565,13.7629 L -30.4463,14.199 L -29.4463,14.291 L -29.3898,14.0011 L -29.2913,13.7455 L -29.1508,13.5241
 L -28.9683,13.337 L -28.7509,13.1883 L -28.506,13.082 L -28.2334,13.0183 L -27.9333,12.997 L -27.6213,13.019
 L -27.3455,13.0848 L -27.1058,13.1944 L -26.9023,13.348 L -26.7395,13.5408 L -26.6233,13.7693 L -26.5535,14.0333
 L -26.5303,14.333 L -26.5438,14.5619 L -26.5843,14.7785 L -26.6518,14.9829 L -26.7463,15.175 L -26.8621,15.3585
 L -26.9948,15.538 L -27.1441,15.7135 L -27.3103,15.885 L -27.4901,16.0541 L -27.6805,16.2233 L -27.8816,16.3926
 L -28.3103,16.7346 L -28.5285,16.9145 L -28.7478,17.1016 L -28.9683,17.296 L -29.1867,17.4998 L -29.4,17.7153
 L -29.6082,17.9423 L -29.8113,18.181 L -30.0041,18.4349 L -30.1815,18.7075 L -30.3436,18.9989 L -30.4903,19.309
 L -30.4903,20 L -25.4043,20 z
M -37.2709,20.0644 L -36.7297,19.8735 L -36.2693,19.5554 L -35.8899,19.11 L -35.5928,18.5439 L -35.3807,17.8635
 L -35.2534,17.0689 L -35.2109,16.16 L -35.2513,15.2378 L -35.3724,14.436 L -35.5743,13.7548 L -35.8569,13.194
 L -36.2243,12.7556 L -36.6807,12.4425 L -37.2259,12.2546 L -37.8599,12.192 L -38.5106,12.254 L -39.0677,12.4398
 L -39.5311,12.7495 L -39.9009,13.183 L -40.1835,13.7403 L -40.3854,14.4223 L -40.5065,15.2288 L -40.5469,16.16
 L -40.5054,17.0734 L -40.3807,17.8705 L -40.1729,18.5514 L -39.8819,19.116 L -39.5082,19.5588 L -39.0522,19.875
 L -38.5137,20.0647 L -37.8929,20.128 z
M -38.2884,19.2814 L -38.6367,19.1385 L -38.9259,18.9004 L -39.1559,18.567 L -39.3314,18.1308 L -39.4567,17.5843
 L -39.5319,16.9273 L -39.5569,16.16 L -39.5322,15.3726 L -39.4582,14.7045 L -39.3347,14.1556 L -39.1619,13.726
 L -38.932,13.4023 L -38.6384,13.171 L -38.281,13.0323 L -37.8599,12.986 L -37.4491,13.0329 L -37.1007,13.1738
 L -36.8146,13.4084 L -36.5909,13.737 L -36.4225,14.1701 L -36.3022,14.7183 L -36.23,15.3816 L -36.2059,16.16
 L -36.2312,16.9139 L -36.3069,17.5638 L -36.4332,18.1095 L -36.6099,18.551 L -36.8409,18.8914 L -37.1297,19.1345
 L -37.4763,19.2804 L -37.8809,19.329 z
M 29.8191,18.276 L 30.8961,18.276 L 30.8961,17.504 L 29.8191,17.504 L 29.8191,12.32 L 28.7891,12.32
 L 25.2731,17.511 L 25.2731,18.276 L 28.8951,18.276 L 28.8951,20 L 29.8191,20 z
M 26.1751,17.504 L 26.2621,17.394 L 26.5571,16.989 L 28.5291,14.075 L 28.569,14.0134 L 28.6178,13.9328
 L 28.7421,13.714 L 28.8513,13.5123 L 28.8814,13.4536 L 28.8951,13.423 L 28.8951,17.504 z
M 46.6399,19.168 L 44.7749,19.168 L 44.7749,12.32 L 43.8719,12.32 L 42.0609,13.572 L 42.0609,14.496
 L 43.7899,13.255 L 43.7899,19.168 L 41.8379,19.168 L 41.8379,20 L 46.6399,20 z
M 51.8191,18.276 L 52.8961,18.276 L 52.8961,17.504 L 51.8191,17.504 L 51.8191,12.32 L 50.7891,12.32
 L 47.2731,17.511 L 47.2731,18.276 L 50.8951,18.276 L 50.8951,20 L 51.8191,20 z
M 48.1751,17.504 L 48.2621,17.394 L 48.5571,16.989 L 50.5291,14.075 L 50.569,14.0134 L 50.6178,13.9328
 L 50.7421,13.714 L 50.8513,13.5123 L 50.8814,13.4536 L 50.8951,13.423 L 50.8951,17.504 z
M -47.3943,19.168 L -49.2593,19.168 L -49.2593,12.32 L -50.1623,12.32 L -51.9733,13.572 L -51.9733,14.496
 L -50.2443,13.255 L -50.2443,19.168 L -52.1963,19.168 L -52.1963,20 L -47.3943,20 z
" stroke="black" fill="lightgray" stroke-width="0.5"/></svg>
