<?xml version="1.0" standalone="no"?>
<!DOCTYPE svg PUBLIC "-//W3C//DTD SVG 1.1//EN" "http://www.w3.org/Graphics/SVG/1.1/DTD/svg11.dtd">
<svg width="49" height="11" viewBox="-24 -10 49 11" xmlns="http://www.w3.org/2000/svg" version="1.1">
<title>OpenSCAD Model</title>
<path d="
M -19.9759,0.0731201 L -19.369,-0.0914917 L -18.8404,-0.36586 L -18.3902,-0.75 L -18.0302,-1.22893 L -17.773,-1.78773
 L -17.6187,-2.42644 L -17.5672,-3.14499 L -17.6159,-3.81024 L -17.762,-4.40399 L -18.0054,-4.92624 L -18.3462,-5.377
 L -18.7699,-5.74055 L -19.262,-6.00024 L -19.8224,-6.15605 L -20.4512,-6.20799 L -20.8316,-6.18781 L -21.19,-6.12724
 L -21.5262,-6.02631 L -21.8402,-5.88499 L -22.1257,-5.70555 L -22.3772,-5.48924 L -22.5947,-5.23605 L -22.7782,-4.946
 L -22.7423,-5.814 L -22.6345,-6.573 L -22.4548,-7.22299 L -22.2032,-7.76399 L -21.8857,-8.19012 L -21.509,-8.49449
 L -21.0732,-8.67712 L -20.5782,-8.73799 L -20.0223,-8.66512 L -19.5737,-8.44649 L -19.2323,-8.08212 L -18.9982,-7.57199
 L -17.8322,-7.782 L -18.2145,-8.63336 L -18.7975,-9.24149 L -19.581,-9.60637 L -20.5652,-9.728 L -21.341,-9.64468
 L -22.0225,-9.39474 L -22.6095,-8.97818 L -23.1022,-8.39499 L -23.4916,-7.6568 L -23.7697,-6.77425 L -23.9366,-5.7473
 L -23.9922,-4.57599 L -23.9387,-3.49542 L -23.7782,-2.55174 L -23.5107,-1.74493 L -23.1362,-1.075 L -22.6602,-0.548676
 L -22.089,-0.172745 L -21.4227,0.0528107 L -20.6612,0.127991 z
M -21.1109,-0.899307 L -21.482,-1.03224 L -21.8144,-1.2538 L -22.1082,-1.564 L -22.348,-1.94362 L -22.5192,-2.37349
 L -22.622,-2.85362 L -22.6562,-3.38399 L -22.6232,-3.79987 L -22.5242,-4.16849 L -22.3592,-4.48987 L -22.1282,-4.76399
 L -21.8436,-4.98318 L -21.5177,-5.13974 L -21.1506,-5.23367 L -20.7422,-5.265 L -20.3113,-5.22961 L -19.9305,-5.12349
 L -19.5998,-4.94662 L -19.3192,-4.69899 L -19.0956,-4.38661 L -18.936,-4.0145 L -18.8401,-3.58261 L -18.8082,-3.09099
 L -18.8397,-2.59737 L -18.9342,-2.15948 L -19.0917,-1.77737 L -19.3122,-1.45099 L -19.588,-1.19025 L -19.9115,-1.004
 L -20.2825,-0.892242 L -20.7012,-0.854996 z
M 16.6573,-1.03799 L 11.6563,-1.03799 L 11.7744,-1.27837 L 11.9248,-1.5235 L 12.1074,-1.77336 L 12.3223,-2.028
 L 12.5738,-2.29286 L 12.8653,-2.57349 L 13.1968,-2.86987 L 13.5683,-3.18199 L 14.2218,-3.72218 L 14.7605,-4.18674
 L 15.1843,-4.57568 L 15.4933,-4.88899 L 15.7297,-5.16493 L 15.935,-5.44073 L 16.1092,-5.71643 L 16.2523,-5.99199
 L 16.3638,-6.26793 L 16.4435,-6.54474 L 16.4913,-6.82243 L 16.5073,-7.101 L 16.4586,-7.69455 L 16.3125,-8.21625
 L 16.0691,-8.66606 L 15.7283,-9.04399 L 15.2974,-9.34325 L 14.7828,-9.55699 L 14.1844,-9.68524 L 13.5023,-9.728
 L 12.8727,-9.68562 L 12.303,-9.55849 L 11.7932,-9.34662 L 11.3433,-9.04999 L 10.9677,-8.68175 L 10.68,-8.25499
 L 10.4802,-7.76974 L 10.3683,-7.226 L 11.6153,-7.11099 L 11.6859,-7.47255 L 11.8088,-7.79124 L 11.9839,-8.06706
 L 12.2113,-8.29999 L 12.4825,-8.48549 L 12.788,-8.618 L 13.128,-8.69749 L 13.5023,-8.724 L 13.8917,-8.69669
 L 14.236,-8.61475 L 14.5352,-8.47818 L 14.7893,-8.28699 L 14.9923,-8.0468 L 15.1373,-7.76224 L 15.2243,-7.4333
 L 15.2533,-7.06 L 15.2365,-6.77512 L 15.186,-6.50549 L 15.102,-6.25111 L 14.9843,-6.01199 L 14.8393,-5.78349
 L 14.6735,-5.56 L 14.4868,-5.34149 L 14.2793,-5.12799 L 14.0551,-4.91699 L 13.8178,-4.70599 L 13.5672,-4.495
 L 13.0325,-4.06856 L 12.7603,-3.84424 L 12.4865,-3.61105 L 12.2113,-3.36899 L 11.939,-3.11525 L 11.673,-2.84698
 L 11.4135,-2.56424 L 11.1603,-2.267 L 10.9198,-1.95081 L 10.6985,-1.61124 L 10.4963,-1.24831 L 10.3133,-0.862
 L 10.3133,-0 L 16.6573,-0 z
M 21.7869,0.048996 L 22.4617,-0.187988 L 23.0359,-0.582993 L 23.5092,-1.13599 L 23.8798,-1.83937 L 24.1445,-2.68449
 L 24.3033,-3.67137 L 24.3562,-4.79999 L 24.3059,-5.94524 L 24.1547,-6.94099 L 23.9029,-7.78725 L 23.5502,-8.48399
 L 23.0922,-9.02824 L 22.5232,-9.41699 L 21.8432,-9.65024 L 21.0522,-9.728 L 20.2402,-9.65106 L 19.545,-9.42024
 L 18.9667,-9.03555 L 18.5052,-8.49699 L 18.1531,-7.80469 L 17.9015,-6.95775 L 17.7505,-5.95618 L 17.7002,-4.79999
 L 17.7521,-3.66568 L 17.9075,-2.67574 L 18.1665,-1.83018 L 18.5292,-1.129 L 18.9956,-0.579056 L 19.5647,-0.186249
 L 20.2366,0.0494232 L 21.0112,0.127991 z
M 20.5171,-0.928055 L 20.0825,-1.10524 L 19.7216,-1.40056 L 19.4342,-1.814 L 19.2155,-2.35536 L 19.0592,-3.03349
 L 18.9655,-3.84837 L 18.9342,-4.79999 L 18.9651,-5.77699 L 19.0575,-6.60599 L 19.2115,-7.28699 L 19.4272,-7.81999
 L 19.7141,-8.22162 L 20.0805,-8.5085 L 20.5266,-8.68062 L 21.0522,-8.73799 L 21.5648,-8.67975 L 21.9995,-8.50499
 L 22.3563,-8.21375 L 22.6352,-7.806 L 22.8452,-7.26862 L 22.9952,-6.58849 L 23.0852,-5.76561 L 23.1152,-4.79999
 L 23.0837,-3.86505 L 22.9892,-3.05925 L 22.8317,-2.38255 L 22.6112,-1.83499 L 22.3231,-1.41237 L 21.9627,-1.11049
 L 21.5301,-0.929367 L 21.0252,-0.868988 z
M -14.5652,-9.536 L -15.8942,-9.536 L -15.7312,-2.68799 L -14.7282,-2.68799 z
M 5.84624,-0.653992 L 5.90306,-1.297 L 5.99774,-1.92899 L 6.13031,-2.54999 L 6.30067,-3.16806 L 6.5088,-3.79024
 L 6.75468,-4.41655 L 7.0383,-5.047 L 7.39531,-5.74043 L 7.86031,-6.55475 L 8.4333,-7.48993 L 9.1143,-8.54599
 L 9.1143,-9.536 L 2.7843,-9.536 L 2.7843,-8.49799 L 7.93431,-8.49799 L 7.08762,-7.22025 L 6.37155,-6.019
 L 5.78612,-4.89424 L 5.3313,-3.84599 L 4.99049,-2.8485 L 4.74706,-1.875 L 4.601,-0.925491 L 4.55231,-0
 L 5.8273,-0 z
M -2.17714,-6.784 L -8.93913,-6.784 L -8.93913,-5.78 L -2.17714,-5.78 z
M -2.17714,-3.32799 L -8.93913,-3.32799 L -8.93913,-2.32399 L -2.17714,-2.32399 z
M -14.5922,-1.34399 L -15.9072,-1.34399 L -15.9072,-0 L -14.5922,-0 z
" stroke="black" fill="lightgray" stroke-width="0.5"/></svg>
